<?xml version="1.0" encoding="UTF-8" standalone="no"?>
<!-- Created with Inkscape (http://www.inkscape.org/) -->

<svg
   width="210mm"
   height="297mm"
   viewBox="0 0 210 297"
   version="1.1"
   id="svg5"
   inkscape:version="1.2.1 (9c6d41e410, 2022-07-14)"
   sodipodi:docname="emblem.svg"
   xmlns:inkscape="http://www.inkscape.org/namespaces/inkscape"
   xmlns:sodipodi="http://sodipodi.sourceforge.net/DTD/sodipodi-0.dtd"
   xmlns="http://www.w3.org/2000/svg"
   xmlns:svg="http://www.w3.org/2000/svg">
  <sodipodi:namedview
     id="namedview7"
     pagecolor="#505050"
     bordercolor="#eeeeee"
     borderopacity="1"
     inkscape:showpageshadow="0"
     inkscape:pageopacity="0"
     inkscape:pagecheckerboard="0"
     inkscape:deskcolor="#505050"
     inkscape:document-units="mm"
     showgrid="false"
     inkscape:zoom="0.50646226"
     inkscape:cx="-61.208905"
     inkscape:cy="778.93268"
     inkscape:window-width="1920"
     inkscape:window-height="991"
     inkscape:window-x="-9"
     inkscape:window-y="-9"
     inkscape:window-maximized="1"
     inkscape:current-layer="layer1" />
  <defs
     id="defs2" />
  <g
     inkscape:label="Layer 1"
     inkscape:groupmode="layer"
     id="layer1">
    <g
       id="g3822">
      <path
         sodipodi:type="star"
         style="font-variation-settings:'wght' 700;fill:#302000;fill-opacity:1;stroke:none;stroke-width:5.29167;stroke-linecap:round;stroke-dasharray:none;stroke-opacity:1"
         id="path2611"
         inkscape:flatsided="false"
         sodipodi:sides="3"
         sodipodi:cx="-217.84694"
         sodipodi:cy="59.555275"
         sodipodi:r1="121.49708"
         sodipodi:r2="60.748539"
         sodipodi:arg1="1.018578"
         sodipodi:arg2="2.0657756"
         inkscape:rounded="0"
         inkscape:randomized="0"
         d="m -154.11235,162.99338 -92.59096,-49.98069 -92.59095,-49.980698 89.58003,-55.195773 89.58003,-55.19577 3.01092,105.17647 z"
         inkscape:transform-center-x="-24.488268"
         inkscape:transform-center-y="-51.626895"
         transform="rotate(-28.306953,170.63948,-522.96583)" />
      <path
         id="path352"
         style="font-variation-settings:'wght' 700;fill:#fff3dc;fill-opacity:1;stroke-width:1.76002"
         d="m 107.34392,118.85584 a 44.652512,44.652512 0 0 1 0.79358,0.0566 44.652512,44.652512 0 0 0 -0.79358,-0.0566 z m -5.14768,0.002 a 44.652512,44.652512 0 0 0 -0.77984,0.0562 44.652512,44.652512 0 0 1 0.77984,-0.0562 z m 7.82268,0.23847 a 44.652512,44.652512 0 0 1 0.77826,0.0927 44.652512,44.652512 0 0 0 -0.77826,-0.0927 z m -10.503974,0.005 a 44.652512,44.652512 0 0 0 -0.754687,0.0904 44.652512,44.652512 0 0 1 0.754687,-0.0904 z m 13.746674,0.49068 a 44.652512,44.652512 0 0 1 0.62504,0.13555 44.652512,44.652512 0 0 0 -0.62504,-0.13555 z m -16.98975,0.008 a 44.652512,44.652512 0 0 0 -0.561403,0.12218 44.652512,44.652512 0 0 1 0.561403,-0.12218 z m 19.49778,0.56218 a 44.652512,44.652512 0 0 1 0.92322,0.24672 44.652512,44.652512 0 0 0 -0.92322,-0.24672 z m -22.000712,0.009 a 44.652512,44.652512 0 0 0 -0.895337,0.23965 44.652512,44.652512 0 0 1 0.895337,-0.23965 z m 24.595962,0.73937 a 44.652512,44.652512 0 0 1 0.82069,0.26165 44.652512,44.652512 0 0 0 -0.82069,-0.26165 z m -27.231289,0.0232 a 44.652512,44.652512 0 0 0 -0.749182,0.23885 44.652512,44.652512 0 0 1 0.749182,-0.23885 z m 30.310159,1.07841 a 44.652512,44.652512 0 0 1 0.86272,0.36811 44.652512,44.652512 0 0 0 -0.86272,-0.36811 z m -33.35406,0.0154 a 44.652512,44.652512 0 0 0 -0.78965,0.33708 44.652512,44.652512 0 0 1 0.78965,-0.33708 z m 35.69748,1.01516 a 44.652512,44.652512 0 0 1 0.97077,0.46986 44.652512,44.652512 0 0 0 -0.97077,-0.46986 z m -38.060544,0.0271 a 44.652512,44.652512 0 0 0 -0.903191,0.43765 44.652512,44.652512 0 0 1 0.903191,-0.43765 z m 40.497474,1.21591 a 44.652512,44.652512 0 0 1 0.79397,0.43215 23.03519,23.03519 0 0 1 -22.23878,17.0915 23.03519,23.03519 0 0 1 -22.236426,-17.08522 44.652512,44.652512 0 0 0 -17.552325,18.48302 44.652512,44.652512 0 0 0 39.783251,24.43214 44.652512,44.652512 0 0 0 39.79661,-24.45689 44.652512,44.652512 0 0 0 -18.3463,-18.8967 z m -43.010229,0.0723 a 44.652512,44.652512 0 0 0 -0.655688,0.35671 44.652512,44.652512 0 0 1 0.655688,-0.35671 z" />
      <path
         style="font-variation-settings:'wght' 700;fill:#fff3dc;fill-opacity:1;stroke:none;stroke-width:5.29167;stroke-linecap:round;stroke-dasharray:none;stroke-opacity:1"
         d="m 82.542882,124.72249 23.246098,8.23205 21.22911,-8.23834 -2.42218,20.38448 -28.341,4.30993 -18.023308,-12.66856 z"
         id="path3751" />
      <path
         id="path234"
         style="font-variation-settings:'wght' 700;fill:#ffaf19;fill-opacity:1;stroke-width:1.76002"
         d="m 104.77279,118.77222 a 44.652512,44.652512 0 0 0 -22.230142,5.94912 23.03519,23.03519 0 0 0 22.236822,17.086 23.03519,23.03519 0 0 0 22.23878,-17.09149 44.652512,44.652512 0 0 0 -22.24546,-5.94363 z" />
    </g>
  </g>
</svg>
